<?xml version="1.0" standalone="no"?>
<!DOCTYPE svg PUBLIC "-//W3C//DTD SVG 20010904//EN"
 "http://www.w3.org/TR/2001/REC-SVG-20010904/DTD/svg10.dtd">
<svg version="1.0" xmlns="http://www.w3.org/2000/svg"
 width="200.000000pt" height="200.000000pt" viewBox="0 0 200.000000 200.000000"
 preserveAspectRatio="xMidYMid meet">
<metadata>
Created by potrace 1.11, written by Peter Selinger 2001-2013
</metadata>
<g transform="translate(0.000000,200.000000) scale(0.100000,-0.100000)"
fill="#000000" stroke="none">
<path d="M820 1940 c-163 -43 -320 -146 -415 -271 -90 -119 -155 -294 -155
-417 l0 -50 51 -21 c153 -66 365 -95 699 -95 334 0 546 29 699 95 l51 21 0 53
c0 28 -9 87 -20 131 -67 264 -255 462 -515 544 -103 33 -293 37 -395 10z m318
-85 c177 -37 336 -151 430 -308 36 -60 81 -179 82 -214 0 -21 -1 -22 -39 -9
-122 44 -344 68 -611 68 -267 0 -489 -24 -611 -68 -47 -16 -48 -14 -18 82 98
322 435 519 767 449z"/>
<path d="M270 1105 c0 -2 51 -194 113 -428 127 -472 124 -467 229 -537 95 -63
198 -91 358 -97 194 -7 331 26 435 105 90 68 95 79 215 527 60 225 110 415
110 421 0 8 -24 4 -74 -12 -157 -49 -374 -74 -656 -74 -283 0 -526 29 -673 79
-32 11 -57 18 -57 16z m479 -207 c1 25 11 28 29 10 9 -9 12 -9 12 3 0 7 9 -6
20 -30 11 -23 17 -47 14 -52 -3 -5 0 -17 6 -26 9 -15 10 -14 4 7 -7 30 -5 27
63 -60 66 -83 114 -129 120 -113 30 84 150 264 170 256 7 -3 18 7 24 21 17 37
65 37 80 -1 16 -40 25 -583 10 -583 -6 0 -11 -18 -11 -46 0 -25 -4 -43 -9 -39
-6 3 -14 -2 -19 -12 -8 -14 -12 -12 -26 15 -13 24 -17 80 -23 277 -3 135 -10
242 -14 238 -21 -22 -127 -237 -122 -249 3 -8 1 -14 -5 -14 -5 0 -9 -7 -8 -16
0 -11 -7 -18 -21 -19 -13 -1 -23 3 -23 9 -1 6 -11 -1 -23 -15 -29 -35 -74 -34
-68 2 1 13 11 35 21 49 l18 26 -76 69 c-59 55 -74 64 -68 45 4 -14 9 -93 12
-177 4 -145 4 -152 -16 -163 -14 -7 -20 -21 -20 -45 0 -31 -20 -63 -20 -33 -1
9 -5 7 -14 -4 -7 -10 -16 -18 -18 -18 -14 0 -15 47 -4 119 7 43 9 87 5 98 -8
22 -15 107 -25 301 -6 119 -9 134 -28 147 -11 8 -16 15 -12 15 5 0 18 -8 29
-17 19 -17 19 -17 13 32 l-6 50 14 -40 c10 -29 14 -34 15 -17z m568 -670 c-3
-8 -6 -5 -6 6 -1 11 2 17 5 13 3 -3 4 -12 1 -19z"/>
<path d="M1236 911 c-3 -5 2 -8 11 -7 10 0 19 -9 23 -24 5 -22 7 -23 13 -6 12
30 -31 64 -47 37z"/>
<path d="M770 876 c0 -7 7 -19 15 -26 16 -13 20 -3 9 24 -8 20 -24 21 -24 2z"/>
<path d="M1277 843 c-8 -13 2 -93 12 -93 4 0 5 17 3 38 -6 64 -7 68 -15 55z"/>
</g>
</svg>
